solid ASCII
  facet normal 0.000000e+00 0.000000e+00 1.000000e+00
    outer loop
      vertex   1.900000e+00 4.449566e-16 3.800000e+00
      vertex   -1.900000e+00 2.033816e-32 3.800000e+00
      vertex   1.900000e+00 -5.000000e+00 3.800000e+00
    endloop
  endfacet
  facet normal 0.000000e+00 0.000000e+00 1.000000e+00
    outer loop
      vertex   1.900000e+00 -5.000000e+00 3.800000e+00
      vertex   -1.900000e+00 2.033816e-32 3.800000e+00
      vertex   -1.900000e+00 -5.000000e+00 3.800000e+00
    endloop
  endfacet
  facet normal -0.000000e+00 0.000000e+00 1.000000e+00
    outer loop
      vertex   -3.500000e+00 -5.000000e+00 3.800000e+00
      vertex   -2.300000e+00 -5.000000e+00 3.800000e+00
      vertex   -3.500000e+00 2.033816e-32 3.800000e+00
    endloop
  endfacet
  facet normal -0.000000e+00 0.000000e+00 1.000000e+00
    outer loop
      vertex   -3.500000e+00 2.033816e-32 3.800000e+00
      vertex   -2.300000e+00 -5.000000e+00 3.800000e+00
      vertex   -2.300000e+00 2.033816e-32 3.800000e+00
    endloop
  endfacet
  facet normal 0.000000e+00 0.000000e+00 -1.000000e+00
    outer loop
      vertex   3.900000e+00 -5.000000e+00 3.300000e+00
      vertex   -3.900000e+00 -5.000000e+00 3.300000e+00
      vertex   3.900000e+00 1.110223e-15 3.300000e+00
    endloop
  endfacet
  facet normal -0.000000e+00 0.000000e+00 -1.000000e+00
    outer loop
      vertex   3.900000e+00 1.110223e-15 3.300000e+00
      vertex   -3.900000e+00 -5.000000e+00 3.300000e+00
      vertex   -3.900000e+00 1.110223e-15 3.300000e+00
    endloop
  endfacet
  facet normal 0.000000e+00 0.000000e+00 1.000000e+00
    outer loop
      vertex   3.500000e+00 8.196568e-16 3.800000e+00
      vertex   2.300000e+00 5.386316e-16 3.800000e+00
      vertex   3.500000e+00 -5.000000e+00 3.800000e+00
    endloop
  endfacet
  facet normal 0.000000e+00 0.000000e+00 1.000000e+00
    outer loop
      vertex   3.500000e+00 -5.000000e+00 3.800000e+00
      vertex   2.300000e+00 5.386316e-16 3.800000e+00
      vertex   2.300000e+00 -5.000000e+00 3.800000e+00
    endloop
  endfacet
  facet normal 0.000000e+00 0.000000e+00 -1.000000e+00
    outer loop
      vertex   2.300000e+00 5.386316e-16 8.800000e+00
      vertex   3.500000e+00 8.196568e-16 8.800000e+00
      vertex   2.300000e+00 -5.000000e+00 8.800000e+00
    endloop
  endfacet
  facet normal 0.000000e+00 0.000000e+00 -1.000000e+00
    outer loop
      vertex   2.300000e+00 -5.000000e+00 8.800000e+00
      vertex   3.500000e+00 8.196568e-16 8.800000e+00
      vertex   3.500000e+00 -5.000000e+00 8.800000e+00
    endloop
  endfacet
  facet normal 0.000000e+00 0.000000e+00 -1.000000e+00
    outer loop
      vertex   -1.900000e+00 4.709890e-32 8.800000e+00
      vertex   1.900000e+00 4.449566e-16 8.800000e+00
      vertex   -1.900000e+00 -5.000000e+00 8.800000e+00
    endloop
  endfacet
  facet normal 0.000000e+00 0.000000e+00 -1.000000e+00
    outer loop
      vertex   -1.900000e+00 -5.000000e+00 8.800000e+00
      vertex   1.900000e+00 4.449566e-16 8.800000e+00
      vertex   1.900000e+00 -5.000000e+00 8.800000e+00
    endloop
  endfacet
  facet normal 0.000000e+00 0.000000e+00 1.000000e+00
    outer loop
      vertex   3.900000e+00 -5.352148e-33 9.300000e+00
      vertex   -3.900000e+00 -5.352148e-33 9.300000e+00
      vertex   3.900000e+00 -5.000000e+00 9.300000e+00
    endloop
  endfacet
  facet normal 0.000000e+00 0.000000e+00 1.000000e+00
    outer loop
      vertex   3.900000e+00 -5.000000e+00 9.300000e+00
      vertex   -3.900000e+00 -5.352148e-33 9.300000e+00
      vertex   -3.900000e+00 -5.000000e+00 9.300000e+00
    endloop
  endfacet
  facet normal 0.000000e+00 -0.000000e+00 -1.000000e+00
    outer loop
      vertex   -3.500000e+00 4.709890e-32 8.800000e+00
      vertex   -2.300000e+00 4.709890e-32 8.800000e+00
      vertex   -3.500000e+00 -5.000000e+00 8.800000e+00
    endloop
  endfacet
  facet normal 0.000000e+00 0.000000e+00 -1.000000e+00
    outer loop
      vertex   -3.500000e+00 -5.000000e+00 8.800000e+00
      vertex   -2.300000e+00 4.709890e-32 8.800000e+00
      vertex   -2.300000e+00 -5.000000e+00 8.800000e+00
    endloop
  endfacet
  facet normal 1.000000e+00 0.000000e+00 0.000000e+00
    outer loop
      vertex   3.900000e+00 -5.000000e+00 3.300000e+00
      vertex   3.900000e+00 1.110223e-15 3.300000e+00
      vertex   3.900000e+00 -5.000000e+00 9.300000e+00
    endloop
  endfacet
  facet normal 1.000000e+00 -0.000000e+00 0.000000e+00
    outer loop
      vertex   3.900000e+00 -5.000000e+00 9.300000e+00
      vertex   3.900000e+00 1.110223e-15 3.300000e+00
      vertex   3.900000e+00 -5.352148e-33 9.300000e+00
    endloop
  endfacet
  facet normal -1.000000e+00 -7.993606e-16 -0.000000e+00
    outer loop
      vertex   3.500000e+00 -5.000000e+00 8.800000e+00
      vertex   3.500000e+00 8.196568e-16 8.800000e+00
      vertex   3.500000e+00 -5.000000e+00 3.800000e+00
    endloop
  endfacet
  facet normal -1.000000e+00 -7.993606e-16 0.000000e+00
    outer loop
      vertex   3.500000e+00 -5.000000e+00 3.800000e+00
      vertex   3.500000e+00 8.196568e-16 8.800000e+00
      vertex   3.500000e+00 8.196568e-16 3.800000e+00
    endloop
  endfacet
  facet normal 1.000000e+00 7.993606e-16 0.000000e+00
    outer loop
      vertex   2.300000e+00 5.386316e-16 8.800000e+00
      vertex   2.300000e+00 -5.000000e+00 8.800000e+00
      vertex   2.300000e+00 5.386316e-16 3.800000e+00
    endloop
  endfacet
  facet normal 1.000000e+00 7.993606e-16 0.000000e+00
    outer loop
      vertex   2.300000e+00 5.386316e-16 3.800000e+00
      vertex   2.300000e+00 -5.000000e+00 8.800000e+00
      vertex   2.300000e+00 -5.000000e+00 3.800000e+00
    endloop
  endfacet
  facet normal -1.000000e+00 0.000000e+00 0.000000e+00
    outer loop
      vertex   1.900000e+00 -5.000000e+00 8.800000e+00
      vertex   1.900000e+00 4.449566e-16 8.800000e+00
      vertex   1.900000e+00 -5.000000e+00 3.800000e+00
    endloop
  endfacet
  facet normal -1.000000e+00 0.000000e+00 0.000000e+00
    outer loop
      vertex   1.900000e+00 -5.000000e+00 3.800000e+00
      vertex   1.900000e+00 4.449566e-16 8.800000e+00
      vertex   1.900000e+00 4.449566e-16 3.800000e+00
    endloop
  endfacet
  facet normal -1.000000e+00 5.329071e-16 0.000000e+00
    outer loop
      vertex   -2.300000e+00 -5.000000e+00 8.800000e+00
      vertex   -2.300000e+00 4.709890e-32 8.800000e+00
      vertex   -2.300000e+00 -5.000000e+00 3.800000e+00
    endloop
  endfacet
  facet normal -1.000000e+00 5.329071e-16 0.000000e+00
    outer loop
      vertex   -2.300000e+00 -5.000000e+00 3.800000e+00
      vertex   -2.300000e+00 4.709890e-32 8.800000e+00
      vertex   -2.300000e+00 2.033816e-32 3.800000e+00
    endloop
  endfacet
  facet normal 1.000000e+00 2.220446e-16 -1.188416e-48
    outer loop
      vertex   -1.900000e+00 4.709890e-32 8.800000e+00
      vertex   -1.900000e+00 -5.000000e+00 8.800000e+00
      vertex   -1.900000e+00 2.033816e-32 3.800000e+00
    endloop
  endfacet
  facet normal 1.000000e+00 2.220446e-16 0.000000e+00
    outer loop
      vertex   -1.900000e+00 2.033816e-32 3.800000e+00
      vertex   -1.900000e+00 -5.000000e+00 8.800000e+00
      vertex   -1.900000e+00 -5.000000e+00 3.800000e+00
    endloop
  endfacet
  facet normal -1.000000e+00 -8.881784e-17 -1.480297e-16
    outer loop
      vertex   -3.900000e+00 1.110223e-15 3.300000e+00
      vertex   -3.900000e+00 -5.000000e+00 3.300000e+00
      vertex   -3.900000e+00 -5.352148e-33 9.300000e+00
    endloop
  endfacet
  facet normal -1.000000e+00 8.881784e-17 -2.960595e-16
    outer loop
      vertex   -3.900000e+00 -5.352148e-33 9.300000e+00
      vertex   -3.900000e+00 -5.000000e+00 3.300000e+00
      vertex   -3.900000e+00 -5.000000e+00 9.300000e+00
    endloop
  endfacet
  facet normal -2.035408e-15 -1.000000e+00 1.480297e-16
    outer loop
      vertex   3.900000e+00 -5.000000e+00 9.300000e+00
      vertex   3.500000e+00 -5.000000e+00 3.800000e+00
      vertex   3.900000e+00 -5.000000e+00 3.300000e+00
    endloop
  endfacet
  facet normal 1.480297e-15 -1.000000e+00 2.960595e-15
    outer loop
      vertex   3.900000e+00 -5.000000e+00 3.300000e+00
      vertex   3.500000e+00 -5.000000e+00 3.800000e+00
      vertex   2.300000e+00 -5.000000e+00 3.800000e+00
    endloop
  endfacet
  facet normal 0.000000e+00 -1.000000e+00 -1.776357e-15
    outer loop
      vertex   3.900000e+00 -5.000000e+00 3.300000e+00
      vertex   2.300000e+00 -5.000000e+00 3.800000e+00
      vertex   1.900000e+00 -5.000000e+00 3.800000e+00
    endloop
  endfacet
  facet normal 0.000000e+00 -1.000000e+00 0.000000e+00
    outer loop
      vertex   1.900000e+00 -5.000000e+00 3.800000e+00
      vertex   2.300000e+00 -5.000000e+00 3.800000e+00
      vertex   1.900000e+00 -5.000000e+00 8.800000e+00
    endloop
  endfacet
  facet normal 0.000000e+00 -1.000000e+00 0.000000e+00
    outer loop
      vertex   1.900000e+00 -5.000000e+00 8.800000e+00
      vertex   2.300000e+00 -5.000000e+00 3.800000e+00
      vertex   2.300000e+00 -5.000000e+00 8.800000e+00
    endloop
  endfacet
  facet normal 0.000000e+00 -1.000000e+00 3.552714e-15
    outer loop
      vertex   1.900000e+00 -5.000000e+00 8.800000e+00
      vertex   2.300000e+00 -5.000000e+00 8.800000e+00
      vertex   3.900000e+00 -5.000000e+00 9.300000e+00
    endloop
  endfacet
  facet normal 1.480297e-15 -1.000000e+00 -1.184238e-15
    outer loop
      vertex   3.900000e+00 -5.000000e+00 9.300000e+00
      vertex   2.300000e+00 -5.000000e+00 8.800000e+00
      vertex   3.500000e+00 -5.000000e+00 8.800000e+00
    endloop
  endfacet
  facet normal 0.000000e+00 -1.000000e+00 0.000000e+00
    outer loop
      vertex   3.900000e+00 -5.000000e+00 9.300000e+00
      vertex   3.500000e+00 -5.000000e+00 8.800000e+00
      vertex   3.500000e+00 -5.000000e+00 3.800000e+00
    endloop
  endfacet
  facet normal 0.000000e+00 -1.000000e+00 3.552714e-15
    outer loop
      vertex   3.900000e+00 -5.000000e+00 9.300000e+00
      vertex   -3.900000e+00 -5.000000e+00 9.300000e+00
      vertex   1.900000e+00 -5.000000e+00 8.800000e+00
    endloop
  endfacet
  facet normal 0.000000e+00 -1.000000e+00 3.552714e-15
    outer loop
      vertex   1.900000e+00 -5.000000e+00 8.800000e+00
      vertex   -3.900000e+00 -5.000000e+00 9.300000e+00
      vertex   -1.900000e+00 -5.000000e+00 8.800000e+00
    endloop
  endfacet
  facet normal 0.000000e+00 -1.000000e+00 3.552714e-15
    outer loop
      vertex   -1.900000e+00 -5.000000e+00 8.800000e+00
      vertex   -3.900000e+00 -5.000000e+00 9.300000e+00
      vertex   -2.300000e+00 -5.000000e+00 8.800000e+00
    endloop
  endfacet
  facet normal -0.000000e+00 -1.000000e+00 -0.000000e+00
    outer loop
      vertex   -1.900000e+00 -5.000000e+00 8.800000e+00
      vertex   -2.300000e+00 -5.000000e+00 8.800000e+00
      vertex   -1.900000e+00 -5.000000e+00 3.800000e+00
    endloop
  endfacet
  facet normal 0.000000e+00 -1.000000e+00 0.000000e+00
    outer loop
      vertex   -1.900000e+00 -5.000000e+00 3.800000e+00
      vertex   -2.300000e+00 -5.000000e+00 8.800000e+00
      vertex   -2.300000e+00 -5.000000e+00 3.800000e+00
    endloop
  endfacet
  facet normal -0.000000e+00 -1.000000e+00 -1.776357e-15
    outer loop
      vertex   -1.900000e+00 -5.000000e+00 3.800000e+00
      vertex   -2.300000e+00 -5.000000e+00 3.800000e+00
      vertex   -3.900000e+00 -5.000000e+00 3.300000e+00
    endloop
  endfacet
  facet normal -7.401487e-16 -1.000000e+00 5.921191e-16
    outer loop
      vertex   -3.900000e+00 -5.000000e+00 3.300000e+00
      vertex   -2.300000e+00 -5.000000e+00 3.800000e+00
      vertex   -3.500000e+00 -5.000000e+00 3.800000e+00
    endloop
  endfacet
  facet normal -1.850371e-16 -1.000000e+00 1.480297e-16
    outer loop
      vertex   -3.900000e+00 -5.000000e+00 3.300000e+00
      vertex   -3.500000e+00 -5.000000e+00 3.800000e+00
      vertex   -3.900000e+00 -5.000000e+00 9.300000e+00
    endloop
  endfacet
  facet normal -2.220446e-15 -1.000000e+00 0.000000e+00
    outer loop
      vertex   -3.900000e+00 -5.000000e+00 9.300000e+00
      vertex   -3.500000e+00 -5.000000e+00 3.800000e+00
      vertex   -3.500000e+00 -5.000000e+00 8.800000e+00
    endloop
  endfacet
  facet normal -7.401487e-16 -1.000000e+00 1.184238e-15
    outer loop
      vertex   -3.900000e+00 -5.000000e+00 9.300000e+00
      vertex   -3.500000e+00 -5.000000e+00 8.800000e+00
      vertex   -2.300000e+00 -5.000000e+00 8.800000e+00
    endloop
  endfacet
  facet normal 0.000000e+00 -1.000000e+00 -1.776357e-15
    outer loop
      vertex   -3.900000e+00 -5.000000e+00 3.300000e+00
      vertex   3.900000e+00 -5.000000e+00 3.300000e+00
      vertex   -1.900000e+00 -5.000000e+00 3.800000e+00
    endloop
  endfacet
  facet normal 0.000000e+00 -1.000000e+00 -1.776357e-15
    outer loop
      vertex   -1.900000e+00 -5.000000e+00 3.800000e+00
      vertex   3.900000e+00 -5.000000e+00 3.300000e+00
      vertex   1.900000e+00 -5.000000e+00 3.800000e+00
    endloop
  endfacet
  facet normal 1.000000e+00 -5.329071e-16 2.852197e-48
    outer loop
      vertex   -3.500000e+00 4.709890e-32 8.800000e+00
      vertex   -3.500000e+00 -5.000000e+00 8.800000e+00
      vertex   -3.500000e+00 2.033816e-32 3.800000e+00
    endloop
  endfacet
  facet normal 1.000000e+00 -5.329071e-16 0.000000e+00
    outer loop
      vertex   -3.500000e+00 2.033816e-32 3.800000e+00
      vertex   -3.500000e+00 -5.000000e+00 8.800000e+00
      vertex   -3.500000e+00 -5.000000e+00 3.800000e+00
    endloop
  endfacet
  facet normal 2.049142e-15 1.000000e+00 0.000000e+00
    outer loop
      vertex   3.500000e+00 8.196568e-16 8.800000e+00
      vertex   3.900000e+00 -5.352148e-33 9.300000e+00
      vertex   3.500000e+00 8.196568e-16 3.800000e+00
    endloop
  endfacet
  facet normal -4.951189e-16 1.000000e+00 1.850372e-16
    outer loop
      vertex   3.500000e+00 8.196568e-16 3.800000e+00
      vertex   3.900000e+00 -5.352148e-33 9.300000e+00
      vertex   3.900000e+00 1.110223e-15 3.300000e+00
    endloop
  endfacet
  facet normal -2.341877e-16 1.000000e+00 3.937822e-16
    outer loop
      vertex   3.500000e+00 8.196568e-16 3.800000e+00
      vertex   3.900000e+00 1.110223e-15 3.300000e+00
      vertex   2.300000e+00 5.386316e-16 3.800000e+00
    endloop
  endfacet
  facet normal -2.341877e-16 1.000000e+00 3.937822e-16
    outer loop
      vertex   2.300000e+00 5.386316e-16 3.800000e+00
      vertex   3.900000e+00 1.110223e-15 3.300000e+00
      vertex   1.900000e+00 4.449566e-16 3.800000e+00
    endloop
  endfacet
  facet normal -2.341877e-16 1.000000e+00 0.000000e+00
    outer loop
      vertex   2.300000e+00 5.386316e-16 3.800000e+00
      vertex   1.900000e+00 4.449566e-16 3.800000e+00
      vertex   2.300000e+00 5.386316e-16 8.800000e+00
    endloop
  endfacet
  facet normal -2.341877e-16 1.000000e+00 0.000000e+00
    outer loop
      vertex   2.300000e+00 5.386316e-16 8.800000e+00
      vertex   1.900000e+00 4.449566e-16 3.800000e+00
      vertex   1.900000e+00 4.449566e-16 8.800000e+00
    endloop
  endfacet
  facet normal -2.341877e-16 1.000000e+00 1.826664e-15
    outer loop
      vertex   2.300000e+00 5.386316e-16 8.800000e+00
      vertex   1.900000e+00 4.449566e-16 8.800000e+00
      vertex   3.900000e+00 -5.352148e-33 9.300000e+00
    endloop
  endfacet
  facet normal -1.170938e-16 1.000000e+00 1.358288e-15
    outer loop
      vertex   3.900000e+00 -5.352148e-33 9.300000e+00
      vertex   1.900000e+00 4.449566e-16 8.800000e+00
      vertex   -1.900000e+00 4.709890e-32 8.800000e+00
    endloop
  endfacet
  facet normal 0.000000e+00 1.000000e+00 1.049021e-31
    outer loop
      vertex   3.900000e+00 -5.352148e-33 9.300000e+00
      vertex   -1.900000e+00 4.709890e-32 8.800000e+00
      vertex   -3.900000e+00 -5.352148e-33 9.300000e+00
    endloop
  endfacet
  facet normal 0.000000e+00 1.000000e+00 1.049021e-31
    outer loop
      vertex   -3.900000e+00 -5.352148e-33 9.300000e+00
      vertex   -1.900000e+00 4.709890e-32 8.800000e+00
      vertex   -2.300000e+00 4.709890e-32 8.800000e+00
    endloop
  endfacet
  facet normal 0.000000e+00 1.000000e+00 1.049021e-31
    outer loop
      vertex   -3.900000e+00 -5.352148e-33 9.300000e+00
      vertex   -2.300000e+00 4.709890e-32 8.800000e+00
      vertex   -3.500000e+00 4.709890e-32 8.800000e+00
    endloop
  endfacet
  facet normal -2.341877e-16 1.000000e+00 1.826664e-15
    outer loop
      vertex   3.500000e+00 8.196568e-16 8.800000e+00
      vertex   2.300000e+00 5.386316e-16 8.800000e+00
      vertex   3.900000e+00 -5.352148e-33 9.300000e+00
    endloop
  endfacet
  facet normal 0.000000e+00 1.000000e+00 1.330533e-15
    outer loop
      vertex   3.900000e+00 1.110223e-15 3.300000e+00
      vertex   -3.900000e+00 1.110223e-15 3.300000e+00
      vertex   1.900000e+00 4.449566e-16 3.800000e+00
    endloop
  endfacet
  facet normal -1.170938e-16 1.000000e+00 2.688821e-15
    outer loop
      vertex   1.900000e+00 4.449566e-16 3.800000e+00
      vertex   -3.900000e+00 1.110223e-15 3.300000e+00
      vertex   -1.900000e+00 2.033816e-32 3.800000e+00
    endloop
  endfacet
  facet normal 0.000000e+00 1.000000e+00 2.220446e-15
    outer loop
      vertex   -1.900000e+00 2.033816e-32 3.800000e+00
      vertex   -3.900000e+00 1.110223e-15 3.300000e+00
      vertex   -2.300000e+00 2.033816e-32 3.800000e+00
    endloop
  endfacet
  facet normal 0.000000e+00 1.000000e+00 -5.352148e-33
    outer loop
      vertex   -1.900000e+00 2.033816e-32 3.800000e+00
      vertex   -2.300000e+00 2.033816e-32 3.800000e+00
      vertex   -1.900000e+00 4.709890e-32 8.800000e+00
    endloop
  endfacet
  facet normal 0.000000e+00 1.000000e+00 -5.352148e-33
    outer loop
      vertex   -1.900000e+00 4.709890e-32 8.800000e+00
      vertex   -2.300000e+00 2.033816e-32 3.800000e+00
      vertex   -2.300000e+00 4.709890e-32 8.800000e+00
    endloop
  endfacet
  facet normal 0.000000e+00 1.000000e+00 2.220446e-15
    outer loop
      vertex   -2.300000e+00 2.033816e-32 3.800000e+00
      vertex   -3.900000e+00 1.110223e-15 3.300000e+00
      vertex   -3.500000e+00 2.033816e-32 3.800000e+00
    endloop
  endfacet
  facet normal 2.544261e-15 1.000000e+00 1.850372e-16
    outer loop
      vertex   -3.500000e+00 2.033816e-32 3.800000e+00
      vertex   -3.900000e+00 1.110223e-15 3.300000e+00
      vertex   -3.900000e+00 -5.352148e-33 9.300000e+00
    endloop
  endfacet
  facet normal -1.378178e-31 1.000000e+00 -5.352148e-33
    outer loop
      vertex   -3.500000e+00 2.033816e-32 3.800000e+00
      vertex   -3.900000e+00 -5.352148e-33 9.300000e+00
      vertex   -3.500000e+00 4.709890e-32 8.800000e+00
    endloop
  endfacet
endsolid
